#!OML:ASF G:\JayActor3\Patient Classification 1\Patient 1\Session 5\male.ASF
:FULLY-SPECIFIED
:DEGREES
1072
root -45.5739 18.0854 -5.45258 149.772 94.7344 146.866
lowerback 3.68503 -0.735078 1.24132
upperback 0.805407 -0.927639 -0.297375
thorax -1.26377 -0.463876 -0.957029
lowerneck -6.53393 0.687302 2.02625
upperneck 14.9533 0.63575 1.44326
head 5.58877 0.591145 0.166859
rclavicle -9.44227e-016 -5.56597e-015
rhumerus -36.3952 -4.91366 -86.4106
rradius 29.1644
rwrist -0.51923
rhand -21.1713 -9.93181
rfingers 7.12502
rthumb 5.20896 -39.8478
lclavicle -9.44227e-016 -5.56597e-015
lhumerus -33.7138 11.1564 79.9442
lradius 19.1658
lwrist 13.6052
lhand -17.8699 11.5159
lfingers 7.12502
lthumb 8.39586 41.3291
rfemur -29.5444 6.79499 22.0118
rtibia 35.1242
rfoot 7.80135 -7.90836
rtoes 0.698779
lfemur 13.54 7.53629 -18.1433
ltibia -9.54166e-015
lfoot 17.1542 -10.7674
ltoes -26.0818
1073
root -45.6543 18.0788 -5.46869 149.985 94.7189 147.119
lowerback 3.75217 -0.760424 1.18549
upperback 0.817218 -0.962741 -0.315679
thorax -1.28953 -0.48121 -0.942008
lowerneck -6.48767 0.672999 1.98998
upperneck 14.8752 0.61565 1.48479
head 5.55611 0.580605 0.183911
rclavicle -3.57812e-015 -3.97569e-016
rhumerus -36.5284 -4.89848 -86.4487
rradius 29.2152
rwrist -0.508044
rhand -21.1532 -9.84579
rfingers 7.12502
rthumb 5.22644 -39.7613
lclavicle -3.57812e-015 -3.97569e-016
lhumerus -33.8057 11.0466 79.9333
lradius 19.1323
lwrist 13.5263
lhand -17.7035 11.4426
lfingers 7.12502
lthumb 8.55643 41.2492
rfemur -29.4754 6.67238 21.937
rtibia 35.4798
rfoot 5.86515 -7.07534
rtoes -0.617923
lfemur 13.3289 7.68793 -18.1763
ltibia -6.99722e-014
lfoot 17.1403 -10.854
ltoes -25.7883
1074
root -45.7333 18.0709 -5.48429 150.037 94.696 147.231
lowerback 3.83298 -0.787414 1.14372
upperback 0.829825 -0.999348 -0.33347
thorax -1.32234 -0.499347 -0.934026
lowerneck -6.45583 0.662388 1.95824
upperneck 14.8132 0.600991 1.51667
head 5.53103 0.572596 0.197702
rclavicle -1.70458e-014 -9.54166e-015
rhumerus -36.6625 -4.89463 -86.4796
rradius 29.2476
rwrist -0.493918
rhand -21.1411 -9.85252
rfingers 7.12502
rthumb 5.23814 -39.7678
lclavicle -1.70458e-014 -9.54166e-015
lhumerus -33.8847 10.9781 79.8974
lradius 19.0733
lwrist 13.3787
lhand -17.551 11.3971
lfingers 7.12502
lthumb 8.70368 41.1977
rfemur -29.359 6.50485 21.886
rtibia 35.9507
rfoot 4.05787 -6.26513
rtoes -1.79082
lfemur 13.1454 7.82726 -18.2027
ltibia -1.90833e-014
lfoot 17.1497 -10.9231
ltoes -25.4419
1075
root -45.8104 18.0616 -5.49967 149.894 94.6735 147.166
lowerback 3.91602 -0.814705 1.12404
upperback 0.847567 -1.03543 -0.349154
thorax -1.35144 -0.517209 -0.93623
lowerneck -6.45062 0.65772 1.94269
upperneck 14.7794 0.594792 1.52647
head 5.51947 0.568594 0.202723
rclavicle -1.11319e-014 -4.37326e-015
rhumerus -36.7875 -4.90719 -86.4999
rradius 29.2523
rwrist -0.47149
rhand -21.1321 -9.92194
rfingers 7.12502
rthumb 5.24677 -39.837
lclavicle -1.11319e-014 -4.37326e-015
lhumerus -33.9388 10.9604 79.8351
lradius 18.98
lwrist 13.1716
lhand -17.436 11.3789
lfingers 7.12502
lthumb 8.81459 41.1748
rfemur -29.2011 6.30314 21.8622
rtibia 36.5391
rfoot 2.50756 -5.48322
rtoes -2.79084
lfemur 12.9938 7.95967 -18.2154
ltibia 1.90833e-014
lfoot 17.1597 -10.9863
ltoes -25.0404
1076
root -45.8857 18.0512 -5.51465 149.516 94.6517 146.879
lowerback 3.99496 -0.840233 1.1251
upperback 0.864325 -1.06835 -0.361129
thorax -1.37946 -0.533562 -0.946404
lowerneck -6.46283 0.65878 1.9532
upperneck 14.7784 0.596856 1.50872
head 5.52133 0.568815 0.195617
rclavicle 9.59136e-015 -3.57812e-015
rhumerus -36.9145 -4.94372 -86.5041
rradius 29.2315
rwrist -0.440966
rhand -21.1177 -10.0226
rfingers 7.12502
rthumb 5.2607 -39.9373
lclavicle 9.59136e-015 -3.57812e-015
lhumerus -33.9765 10.9932 79.7439
lradius 18.8508
lwrist 12.9088
lhand -17.3794 11.3551
lfingers 7.12502
lthumb 8.86926 41.1487
rfemur -29.0143 6.08624 21.8636
rtibia 37.2507
rfoot 1.26331 -4.75086
rtoes -3.57648
lfemur 12.8646 8.08295 -18.2094
ltibia 3.18055e-015
lfoot 17.1634 -11.0409
ltoes -24.5846
1077
root -45.959 18.0393 -5.52962 149.033 94.6412 146.495
lowerback 4.05915 -0.864235 1.14434
upperback 0.89029 -1.09851 -0.368244
thorax -1.38998 -0.548424 -0.96218
lowerneck -6.50809 0.662389 1.96267
upperneck 14.8038 0.602261 1.48428
head 5.53714 0.570612 0.187064
rclavicle -2.98177e-016 -2.38542e-015
rhumerus -37.0124 -4.99348 -86.4936
rradius 29.1742
rwrist -0.393766
rhand -21.1089 -10.026
rfingers 7.12502
rthumb 5.26916 -39.9404
lclavicle -2.98177e-016 -2.38542e-015
lhumerus -33.9871 11.1028 79.6222
lradius 18.6956
lwrist 12.6114
lhand -17.3629 11.3282
lfingers 7.12502
lthumb 8.88518 41.1211
rfemur -28.8115 5.86698 21.8834
rtibia 38.0955
rfoot 0.313114 -4.06665
rtoes -4.18306
lfemur 12.7573 8.2116 -18.1891
ltibia -4.77083e-014
lfoot 17.1075 -11.1222
ltoes -24.2538
1078
root -46.0297 18.0254 -5.54482 148.708 94.6396 146.278
lowerback 4.09018 -0.879289 1.16796
upperback 0.924385 -1.11702 -0.380587
thorax -1.37353 -0.557276 -0.986942
lowerneck -6.55706 0.66554 1.98621
upperneck 14.8427 0.607141 1.44766
head 5.5579 0.572367 0.172431
rclavicle -2.84759e-014 -2.38542e-015
rhumerus -37.1068 -5.06036 -86.4706
rradius 29.101
rwrist -0.338323
rhand -21.086 -10.0241
rfingers 7.12502
rthumb 5.29129 -39.9381
lclavicle -2.84759e-014 -2.38542e-015
lhumerus -33.9747 11.2554 79.4766
lradius 18.5137
lwrist 12.3076
lhand -17.4014 11.3034
lfingers 7.12502
lthumb 8.84803 41.0979
rfemur -28.5954 5.65492 21.8974
rtibia 39.079
rfoot -0.381289 -3.43168
rtoes -4.64088
lfemur 12.1621 8.34565 -18.1781
ltibia 0.945269
lfoot 16.5864 -11.3135
ltoes -23.9302
1079
root -46.0968 18.0096 -5.56022 148.646 94.6269 146.33
lowerback 4.08131 -0.891177 1.18192
upperback 0.968181 -1.13235 -0.404003
thorax -1.32479 -0.564251 -1.01853
lowerneck -6.60506 0.667876 2.00294
upperneck 14.8876 0.610286 1.42208
head 5.58031 0.57383 0.162281
rclavicle -1.74434e-014 1.59028e-015
rhumerus -37.1908 -5.14156 -86.4383
rradius 29.0095
rwrist -0.277506
rhand -21.0529 -10.0245
rfingers 7.12502
rthumb 5.32324 -39.9377
lclavicle -1.74434e-014 1.59028e-015
lhumerus -33.9721 11.4513 79.3065
lradius 18.3405
lwrist 12.0102
lhand -17.4736 11.3005
lfingers 7.12502
lthumb 8.77836 41.098
rfemur -28.3591 5.43853 21.8842
rtibia 40.1969
rfoot -0.927322 -2.83968
rtoes -5.06364
lfemur 10.3444 8.45886 -18.2009
ltibia 4.16837
lfoot 15.0049 -11.7185
ltoes -23.582
1080
root -46.1592 17.9923 -5.57611 148.974 94.6014 146.786
lowerback 4.01925 -0.900717 1.17987
upperback 1.03166 -1.14593 -0.440632
thorax -1.22606 -0.569838 -1.05583
lowerneck -6.65123 0.668929 2.00389
upperneck 14.9235 0.611604 1.41013
head 5.59951 0.574294 0.158817
rclavicle -3.15571e-014 -2.78299e-015
rhumerus -37.2572 -5.2249 -86.3998
rradius 28.9076
rwrist -0.215292
rhand -21.006 -10.023
rfingers 7.12502
rthumb 5.36851 -39.935
lclavicle -3.15571e-014 -2.78299e-015
lhumerus -33.9604 11.6854 79.1212
lradius 18.1701
lwrist 11.7379
lhand -17.573 11.3044
lfingers 7.12502
lthumb 8.6824 41.1058
rfemur -28.0885 5.20926 21.8314
rtibia 41.4329
rfoot -1.36182 -2.30114
rtoes -5.4508
lfemur 9.41813 8.59448 -18.2615
ltibia 5.82366
lfoot 14.0991 -12.0157
ltoes -23.25
1081
root -46.2203 17.9738 -5.59114 149.481 94.5909 147.407
lowerback 3.93128 -0.901562 1.17566
upperback 1.08737 -1.14841 -0.480393
thorax -1.12056 -0.569915 -1.09605
lowerneck -6.66387 0.661212 1.98412
upperneck 14.9437 0.601576 1.42103
head 5.60782 0.569496 0.164955
rclavicle -5.86415e-015 9.54166e-015
rhumerus -37.3308 -5.30408 -86.3614
rradius 28.8079
rwrist -0.159642
rhand -20.9573 -10.0169
rfingers 7.12502
rthumb 5.41559 -39.9277
lclavicle -5.86415e-015 9.54166e-015
lhumerus -33.9662 11.9178 78.9284
lradius 18.0211
lwrist 11.5144
lhand -17.6874 11.2945
lfingers 7.12502
lthumb 8.57199 41.1005
rfemur -27.8211 5.02148 21.7752
rtibia 42.7604
rfoot -1.73269 -1.88982
rtoes -5.82653
lfemur 8.64522 8.75184 -18.3252
ltibia 7.18172
lfoot 13.2998 -12.2933
ltoes -22.9677
1082
root -46.2811 17.9547 -5.60462 150.02 94.5994 148.032
lowerback 3.82209 -0.893889 1.17095
upperback 1.12588 -1.1399 -0.516413
thorax -1.02045 -0.564725 -1.13286
lowerneck -6.64527 0.650913 1.95633
upperneck 14.947 0.588771 1.44219
head 5.60543 0.563378 0.175241
rclavicle -8.34896e-015 2.38542e-015
rhumerus -37.4118 -5.39069 -86.3164
rradius 28.7049
rwrist -0.103508
rhand -20.9091 -10.0102
rfingers 7.12502
rthumb 5.4621 -39.9198
lclavicle -8.34896e-015 2.38542e-015
lhumerus -33.997 12.1289 78.7382
lradius 17.8991
lwrist 11.3469
lhand -17.8038 11.3128
lfingers 7.12502
lthumb 8.45971 41.1234
rfemur -27.5651 4.88988 21.7321
rtibia 44.1511
rfoot -2.07659 -1.65621
rtoes -6.18493
lfemur 7.8796 8.92495 -18.3781
ltibia 8.46718
lfoot 12.5368 -12.5496
ltoes -22.6341
1083
root -46.3428 17.9355 -5.61566 150.343 94.6468 148.404
lowerback 3.70168 -0.876468 1.18066
upperback 1.1421 -1.11806 -0.538352
thorax -0.936513 -0.55324 -1.16385
lowerneck -6.61478 0.63961 1.92778
upperneck 14.946 0.575019 1.46447
head 5.59965 0.556789 0.185872
rclavicle 8.94531e-016 4.37326e-015
rhumerus -37.4939 -5.48647 -86.2654
rradius 28.5965
rwrist -0.035045
rhand -20.8601 -9.99983
rfingers 7.12502
rthumb 5.50941 -39.9082
lclavicle 8.94531e-016 4.37326e-015
lhumerus -34.0493 12.297 78.5616
lradius 17.8114
lwrist 11.2463
lhand -17.8986 11.3343
lfingers 7.12502
lthumb 8.36816 41.1485
rfemur -27.3345 4.84764 21.7388
rtibia 45.5807
rfoot -2.42307 -1.64414
rtoes -6.51119
lfemur 7.06719 9.11933 -18.3888
ltibia 9.75356
lfoot 11.7741 -12.7906
ltoes -22.2765
1084
root -46.4061 17.9162 -5.62348 150.278 94.7421 148.345
lowerback 3.57087 -0.8484 1.20971
upperback 1.13238 -1.08156 -0.537204
thorax -0.872801 -0.534882 -1.18249
lowerneck -6.58056 0.634451 1.91746
upperneck 14.9474 0.570323 1.46813
head 5.59412 0.554359 0.188281
rclavicle -1.2424e-015 4.37326e-015
rhumerus -37.5831 -5.57998 -86.2109
rradius 28.4905
rwrist 0.0412984
rhand -20.8183 -9.99245
rfingers 7.12502
rthumb 5.54977 -39.8998
lclavicle -1.2424e-015 4.37326e-015
lhumerus -34.1254 12.4212 78.4017
lradius 17.7571
lwrist 11.2004
lhand -17.9697 11.352
lfingers 7.12502
lthumb 8.29954 41.169
rfemur -27.1368 4.91789 21.8208
rtibia 47.0322
rfoot -2.73724 -1.88177
rtoes -6.66902
lfemur 6.21456 9.33597 -18.3383
ltibia 11.0042
lfoot 11.0441 -12.9961
ltoes -21.8569
1085
root -46.4708 17.8968 -5.62981 149.962 94.8369 148.014
lowerback 3.46168 -0.823013 1.24821
upperback 1.09613 -1.04828 -0.527772
thorax -0.848415 -0.518651 -1.19712
lowerneck -6.53324 0.631799 1.91915
upperneck 14.9555 0.570062 1.45953
head 5.58853 0.554092 0.185153
rclavicle 1.98785e-014 7.95139e-015
rhumerus -37.6815 -5.67935 -86.149
rradius 28.3758
rwrist 0.1335
rhand -20.781 -9.99417
rfingers 7.12502
rthumb 5.58584 -39.9005
lclavicle 1.98785e-014 7.95139e-015
lhumerus -34.2328 12.4859 78.2625
lradius 17.7315
lwrist 11.2172
lhand -18 11.3555
lfingers 7.12502
lthumb 8.27038 41.1736
rfemur -26.9405 5.01452 21.9333
rtibia 48.4938
rfoot -2.99261 -2.28546
rtoes -6.5772
lfemur 5.37783 9.47875 -18.2787
ltibia 12.1711
lfoot 10.3369 -13.1102
ltoes -21.4361
1086
root -46.5359 17.8778 -5.63548 149.598 94.9125 147.633
lowerback 3.36976 -0.806775 1.27844
upperback 1.04919 -1.02732 -0.515007
thorax -0.844779 -0.508812 -1.20277
lowerneck -6.50033 0.63791 1.92843
upperneck 14.9806 0.58281 1.43402
head 5.59082 0.559694 0.176485
rclavicle -2.13197e-014 -5.56597e-015
rhumerus -37.7728 -5.76792 -86.0817
rradius 28.2511
rwrist 0.244379
rhand -20.7563 -9.99746
rfingers 7.12502
rthumb 5.60968 -39.9032
lclavicle -2.13197e-014 -5.56597e-015
lhumerus -34.3543 12.5182 78.1447
lradius 17.7244
lwrist 11.2712
lhand -18.0075 11.3299
lfingers 7.12502
lthumb 8.26309 41.1483
rfemur -26.723 5.10582 22.0438
rtibia 49.9527
rfoot -3.22475 -2.7446
rtoes -6.49119
lfemur 4.6267 9.56518 -18.2362
ltibia 13.1776
lfoot 9.66419 -13.1555
ltoes -21.0279
